#!OML:ASF Y:\EmotionMaleHayes\Project 1\Capture day 1\Session 1\Male1.ASF
:FULLY-SPECIFIED
:DEGREES
1762
root 10.1832 16.706 -2.95666 719.861 7.24679 372.678
lowerback 7.50432 -0.390813 -17.5646
upperback 3.41501 -1.71203 -2.11655
thorax -0.0819879 -1.03764 7.6925
lowerneck -20.6492 1.25409 2.9394
upperneck 28.611 1.20104 -1.33516
head 13.0584 0.671159 -0.814069
rclavicle -7.01958e-016 -2.65626e-014
rhumerus -49.8508 -7.55342 -76.9506
rradius 25.6026
rwrist 11.6254
rhand -8.44823 -30.0576
rfingers 7.12502
rthumb 17.4775 -59.2919
lclavicle -7.01958e-016 -2.65626e-014
lhumerus -13.4479 -22.3422 89.1394
lradius 49.2212
lwrist 6.51384
lhand -19.8433 -25.7691
lfingers 7.12502
lthumb 6.49107 4.11145
rfemur -22.4293 -13.4638 2.86263
rtibia 10.0829
rfoot -10.0151 -0.120911
rtoes 4.0128
lfemur 18.818 -1.22862 -37.6392
ltibia 6.70719
lfoot -18.5456 -4.25304
ltoes 1.99708
1763
root 10.1856 16.6733 -2.79083 720.01 7.47684 372.882
lowerback 7.33636 -0.446972 -17.6047
upperback 3.38957 -1.75574 -2.17993
thorax -0.00453198 -1.06355 7.64383
lowerneck -20.5602 1.20613 2.94683
upperneck 28.4715 1.13788 -1.35541
head 12.9808 0.641231 -0.833418
rclavicle -3.48619e-014 -9.01985e-014
rhumerus -49.9776 -7.7267 -76.8422
rradius 25.675
rwrist 10.6813
rhand -9.61304 -30.2806
rfingers 7.12502
rthumb 16.3562 -59.6109
lclavicle -3.48619e-014 -9.01985e-014
lhumerus -13.3615 -22.4416 89.1255
lradius 49.4345
lwrist 6.53325
lhand -20.133 -25.7845
lfingers 7.12502
lthumb 6.21143 4.10441
rfemur -22.8357 -15.5116 3.09785
rtibia 9.48319
rfoot -10.2267 2.24711
rtoes 1.37612
lfemur 19.2196 -1.01707 -37.639
ltibia 6.95751
lfoot -18.7246 -4.65644
ltoes 0.659245
1764
root 10.1908 16.6387 -2.62414 720.124 7.73116 373.147
lowerback 7.25169 -0.501914 -17.664
upperback 3.34298 -1.81948 -2.25335
thorax 0.00880538 -1.09299 7.59852
lowerneck -20.5257 1.16286 2.98289
upperneck 28.4113 1.07501 -1.39116
head 12.9477 0.612665 -0.863814
rclavicle 2.49475e-014 9.52676e-014
rhumerus -50.2306 -7.64241 -76.7638
rradius 25.9518
rwrist 9.96049
rhand -9.58505 -30.7142
rfingers 7.12502
rthumb 16.3832 -60.0423
lclavicle 2.49475e-014 9.52676e-014
lhumerus -13.4034 -22.695 89.1652
lradius 49.6538
lwrist 6.67339
lhand -20.382 -25.9223
lfingers 7.12502
lthumb 5.97101 3.97357
rfemur -23.2294 -17.4795 3.16267
rtibia 9.40844
rfoot -10.4518 4.61804
rtoes 3.22355
lfemur 19.6493 -0.824344 -37.7547
ltibia 7.25057
lfoot -18.9544 -4.92161
ltoes -1.18305
1765
root 10.1927 16.6016 -2.45952 720.233 7.89084 373.348
lowerback 7.19579 -0.47111 -17.7486
upperback 3.28726 -1.77878 -2.26195
thorax -0.0276984 -1.06726 7.63288
lowerneck -20.4833 1.04546 2.85459
upperneck 28.2648 0.910697 -1.26263
head 12.8728 0.543863 -0.819173
rclavicle -3.11843e-015 4.2043e-014
rhumerus -50.2241 -8.08122 -76.3429
rradius 25.8026
rwrist 10.2052
rhand -9.406 -31.0337
rfingers 7.12502
rthumb 16.5556 -60.3474
lclavicle -3.11843e-015 4.2043e-014
lhumerus -13.4974 -23.0877 89.2954
lradius 49.9462
lwrist 6.89468
lhand -20.1603 -26.1175
lfingers 7.12502
lthumb 6.18504 3.77223
rfemur -23.4161 -17.7553 2.86703
rtibia 9.21218
rfoot -10.6535 5.48781
rtoes 7.47448
lfemur 20.0502 -1.05914 -38.0143
ltibia 7.56757
lfoot -19.1728 -4.84524
ltoes -1.13764
1766
root 10.1923 16.5632 -2.29475 720.298 7.96087 373.433
lowerback 7.12861 -0.430167 -17.7318
upperback 3.26589 -1.71162 -2.25521
thorax -0.0315006 -1.03228 7.62595
lowerneck -20.6326 0.955385 2.84348
upperneck 28.2354 0.774664 -1.24683
head 12.888 0.484722 -0.833842
rclavicle 9.72802e-015 1.31198e-014
rhumerus -49.8865 -8.84225 -75.8688
rradius 25.313
rwrist 10.7496
rhand -9.34097 -31.0738
rfingers 7.12502
rthumb 16.6182 -60.3824
lclavicle 9.72802e-015 1.31198e-014
lhumerus -13.6477 -23.3683 89.3957
lradius 50.2787
lwrist 6.92368
lhand -20.1621 -26.1296
lfingers 7.12502
lthumb 6.1833 3.76014
rfemur -23.409 -16.5936 2.69055
rtibia 9.27242
rfoot -11.5138 4.33375
rtoes 2.9816
lfemur 20.4841 -1.63761 -38.2953
ltibia 7.93132
lfoot -19.3477 -5.05782
ltoes 2.39992
1767
root 10.1903 16.5242 -2.12863 720.323 7.99119 373.268
lowerback 7.05578 -0.453082 -17.5037
upperback 3.24535 -1.71382 -2.17711
thorax -0.0200679 -1.03166 7.58438
lowerneck -20.842 0.918161 2.93454
upperneck 28.2841 0.715883 -1.35508
head 12.9506 0.453607 -0.90154
rclavicle 1.15419e-014 -3.25013e-014
rhumerus -49.6006 -9.23163 -75.5514
rradius 25.0386
rwrist 10.8662
rhand -9.08346 -30.7711
rfingers 7.12502
rthumb 16.8661 -60.0586
lclavicle 1.15419e-014 -3.25013e-014
lhumerus -13.8748 -23.2373 89.5409
lradius 50.5228
lwrist 6.8376
lhand -20.4616 -26.1112
lfingers 7.12502
lthumb 5.8942 3.78678
rfemur -22.3847 -10.8894 1.79212
rtibia 7.74831
rfoot -12.6547 -0.720512
rtoes 3.9296
lfemur 20.9274 -2.12608 -38.2411
ltibia 8.31315
lfoot -19.5234 -5.32633
ltoes 4.90895
1768
root 10.185 16.4866 -1.95981 720.299 8.03165 372.899
lowerback 7.01195 -0.495983 -17.1214
upperback 3.22043 -1.73953 -2.04845
thorax -0.0287668 -1.03982 7.51495
lowerneck -20.8997 0.880459 2.95791
upperneck 28.2299 0.64782 -1.34786
head 12.9387 0.426681 -0.913981
rclavicle -1.97418e-014 -3.6477e-014
rhumerus -49.3961 -9.76318 -74.9062
rradius 25.3195
rwrist 9.59115
rhand -7.5454 -30.4708
rfingers 7.12502
rthumb 18.3462 -59.6256
lclavicle -1.97418e-014 -3.6477e-014
lhumerus -14.1702 -23.1265 89.689
lradius 50.6934
lwrist 7.09545
lhand -20.6345 -26.2435
lfingers 7.12502
lthumb 5.72725 3.6591
rfemur -22.7428 -9.99294 2.18836
rtibia 8.99651
rfoot -12.7686 -1.66052
rtoes 3.30942
lfemur 21.3735 -2.27655 -37.7376
ltibia 8.68363
lfoot -19.6349 -5.52209
ltoes 4.19944
1769
root 10.1825 16.4532 -1.7845 720.221 8.09173 372.691
lowerback 7.01223 -0.515071 -16.8656
upperback 3.20966 -1.74955 -1.9558
thorax -0.0463687 -1.04124 7.47556
lowerneck -20.9639 0.86185 2.88472
upperneck 28.2088 0.624734 -1.28481
head 12.9421 0.417046 -0.880856
rclavicle 6.93262e-015 2.74323e-014
rhumerus -49.1799 -10.0148 -74.6349
rradius 25.2897
rwrist 10.3135
rhand -7.2139 -30.4272
rfingers 7.12502
rthumb 18.6651 -59.5518
lclavicle 6.93262e-015 2.74323e-014
lhumerus -14.6271 -23.0019 89.9653
lradius 50.8794
lwrist 7.31614
lhand -20.7941 -26.5014
lfingers 7.12502
lthumb 5.57319 3.40529
rfemur -23.0622 -9.71985 2.65391
rtibia 10.5008
rfoot -12.1425 -2.80032
rtoes -1.02097
lfemur 21.9258 -2.49158 -37.5092
ltibia 9.05024
lfoot -19.7099 -5.46336
ltoes 2.38119
1770
root 10.1833 16.4235 -1.60471 720.137 8.15583 372.729
lowerback 7.0173 -0.53516 -16.8187
upperback 3.21346 -1.77348 -1.91698
thorax -0.0397273 -1.05383 7.49308
lowerneck -21.0785 0.85121 2.83252
upperneck 28.2109 0.629431 -1.30041
head 12.9665 0.410956 -0.877245
rclavicle -6.90777e-015 3.85642e-014
rhumerus -48.8043 -10.0157 -74.7307
rradius 24.7939
rwrist 12.4935
rhand -8.31873 -30.7828
rfingers 7.12502
rthumb 17.6021 -60.006
lclavicle -6.90777e-015 3.85642e-014
lhumerus -15.1871 -22.6139 90.3201
lradius 51.0704
lwrist 7.14807
lhand -20.8715 -26.904
lfingers 7.12502
lthumb 5.49842 3.00469
rfemur -23.1264 -9.15291 2.57615
rtibia 12.1889
rfoot -11.8172 -3.58272
rtoes 3.40312
lfemur 22.5001 -2.8844 -37.7571
ltibia 9.52185
lfoot -19.8486 -4.99963
ltoes 0.136032
1771
root 10.1809 16.397 -1.42186 720.035 8.14004 372.646
lowerback 6.9661 -0.63335 -16.6671
upperback 3.2087 -1.8838 -1.8789
thorax 0.00602626 -1.11081 7.45506
lowerneck -21.0287 0.889801 2.77037
upperneck 28.0766 0.681122 -1.2181
head 12.902 0.437167 -0.825121
rclavicle 3.17062e-014 -4.77083e-015
rhumerus -48.3086 -10.4194 -74.2444
rradius 24.5763
rwrist 12.3809
rhand -7.68891 -29.785
rfingers 7.12502
rthumb 18.2081 -58.9527
lclavicle 3.17062e-014 -4.77083e-015
lhumerus -15.8007 -22.115 90.4482
lradius 51.2477
lwrist 7.11077
lhand -20.9503 -27.0968
lfingers 7.12502
lthumb 5.42229 2.81387
rfemur -23.2132 -8.78365 2.79342
rtibia 13.7692
rfoot -11.1845 -4.30521
rtoes 4.89562
lfemur 23.002 -3.05301 -37.7573
ltibia 10.1019
lfoot -20.0212 -4.42878
ltoes -3.62425
1772
root 10.1784 16.3752 -1.234 719.865 8.00457 372.52
lowerback 6.89043 -0.700687 -16.4457
upperback 3.2109 -1.94406 -1.85419
thorax 0.0561947 -1.14282 7.36054
lowerneck -20.933 0.936324 2.56236
upperneck 27.963 0.735133 -0.937723
head 12.8352 0.476423 -0.671648
rclavicle 1.66482e-015 2.50469e-014
rhumerus -47.9254 -10.4461 -74.1667
rradius 24.5127
rwrist 12.7751
rhand -7.74021 -29.0809
rfingers 7.12502
rthumb 18.1588 -58.2533
lclavicle 1.66482e-015 2.50469e-014
lhumerus -16.4927 -21.702 90.5737
lradius 51.3622
lwrist 7.26654
lhand -21.1709 -27.1293
lfingers 7.12502
lthumb 5.20936 2.78663
rfemur -23.2591 -8.58882 3.17876
rtibia 15.0957
rfoot -10.0162 -5.04836
rtoes 4.32903
lfemur 23.5167 -3.01151 -37.5911
ltibia 10.7526
lfoot -20.0019 -4.44948
ltoes -4.54964
1773
root 10.1738 16.3618 -1.04558 719.757 7.8703 372.461
lowerback 6.78493 -0.676838 -16.3048
upperback 3.20639 -1.88383 -1.82225
thorax 0.090039 -1.11428 7.31138
lowerneck -20.9014 0.942305 2.40953
upperneck 27.9112 0.735697 -0.738076
head 12.8062 0.487605 -0.56835
rclavicle -3.48619e-014 -3.24019e-014
rhumerus -47.5713 -10.0833 -74.5683
rradius 24.6373
rwrist 13.381
rhand -8.17185 -29.3447
rfingers 7.12502
rthumb 17.7435 -58.5552
lclavicle -3.48619e-014 -3.24019e-014
lhumerus -17.2071 -21.4799 90.8018
lradius 51.4176
lwrist 7.22307
lhand -21.2944 -27.3719
lfingers 7.12502
lthumb 5.09005 2.547
rfemur -23.3158 -8.48188 3.4342
rtibia 16.0748
rfoot -8.62947 -5.68937
rtoes 5.99158
lfemur 23.9003 -2.97147 -37.4333
ltibia 11.5247
lfoot -19.7389 -4.75166
ltoes -3.33114
1774
root 10.1653 16.357 -0.861575 719.796 7.80844 372.251
lowerback 6.64791 -0.706462 -16.0874
upperback 3.13123 -1.89107 -1.70236
thorax 0.0816273 -1.11231 7.31862
lowerneck -20.7413 0.961938 2.22238
upperneck 27.7875 0.777495 -0.556665
head 12.722 0.510509 -0.459654
rclavicle -2.38542e-014 1.51076e-014
rhumerus -47.1892 -8.88912 -75.6529
rradius 24.9289
rwrist 13.8659
rhand -9.09794 -30.8326
rfingers 7.12502
rthumb 16.8522 -60.1213
lclavicle -2.38542e-014 1.51076e-014
lhumerus -17.9478 -21.1122 91.0459
lradius 51.3791
lwrist 6.99933
lhand -21.3666 -27.6243
lfingers 7.12502
lthumb 5.02039 2.29625
rfemur -23.4158 -7.89982 3.64424
rtibia 16.6753
rfoot -7.9078 -6.5446
rtoes 10.5396
lfemur 24.0257 -3.28225 -37.2549
ltibia 12.4445
lfoot -19.4572 -4.45637
ltoes -4.03908
1775
root 10.1532 16.3585 -0.680705 719.695 7.66931 371.773
lowerback 6.66868 -0.73335 -15.7208
upperback 3.05949 -1.9155 -1.44026
thorax -0.00861968 -1.11321 7.40195
lowerneck -20.8399 0.977309 2.07445
upperneck 27.8888 0.845591 -0.543574
head 12.7834 0.52655 -0.417889
rclavicle 1.55301e-014 8.05078e-014
rhumerus -46.4782 -9.32599 -75.0258
rradius 24.7035
rwrist 13.5342
rhand -8.03695 -28.6525
rfingers 7.12502
rthumb 17.8733 -57.8512
lclavicle 1.55301e-014 8.05078e-014
lhumerus -18.7101 -20.2823 91.5066
lradius 51.1267
lwrist 6.71095
lhand -21.4238 -27.7623
lfingers 7.12502
lthumb 4.96514 2.1595
rfemur -23.475 -7.25718 4.17701
rtibia 17.2971
rfoot -7.60664 -7.13737
rtoes 13.0084
lfemur 24.1957 -3.70999 -36.9212
ltibia 13.4578
lfoot -19.2014 -3.78322
ltoes -5.93583
